<?xml version="1.0" encoding="UTF-8" standalone="no"?>
<svg
   xmlns:dc="http://purl.org/dc/elements/1.1/"
   xmlns:cc="http://creativecommons.org/ns#"
   xmlns:rdf="http://www.w3.org/1999/02/22-rdf-syntax-ns#"
   xmlns:svg="http://www.w3.org/2000/svg"
   xmlns="http://www.w3.org/2000/svg"
   xmlns:sodipodi="http://sodipodi.sourceforge.net/DTD/sodipodi-0.dtd"
   xmlns:inkscape="http://www.inkscape.org/namespaces/inkscape"
   version="1.1"
   id="svg2"
   xml:space="preserve"
   width="200"
   height="200"
   viewBox="0 0 200 200"
   sodipodi:docname="0813_stackswap_logo_150_150.ai"><metadata
     id="metadata8"><rdf:RDF><cc:Work
         rdf:about=""><dc:format>image/svg+xml</dc:format><dc:type
           rdf:resource="http://purl.org/dc/dcmitype/StillImage" /></cc:Work></rdf:RDF></metadata><defs
     id="defs6"><clipPath
       clipPathUnits="userSpaceOnUse"
       id="clipPath18"><path
         d="M 0,150 H 150 V 0 H 0 Z"
         id="path16" /></clipPath></defs><sodipodi:namedview
     pagecolor="#ffffff"
     bordercolor="#666666"
     borderopacity="1"
     objecttolerance="10"
     gridtolerance="10"
     guidetolerance="10"
     inkscape:pageopacity="0"
     inkscape:pageshadow="2"
     inkscape:window-width="640"
     inkscape:window-height="480"
     id="namedview4" /><g
     id="g10"
     inkscape:groupmode="layer"
     inkscape:label="0813_stackswap_logo_150_150"
     transform="matrix(1.3333333,0,0,-1.3333333,0,200)"><g
       id="g12"><g
         id="g14"
         clip-path="url(#clipPath18)"><g
           id="g20"
           transform="translate(150,75)"><path
             d="m 0,0 c 0,-41.421 -33.579,-75 -75,-75 -41.421,0 -75,33.579 -75,75 0,41.421 33.579,75 75,75 C -33.579,75 0,41.421 0,0"
             style="fill:#1d1d1b;fill-opacity:1;fill-rule:nonzero;stroke:none"
             id="path22" /></g><g
           id="g24"
           transform="translate(85.0979,97.8125)"><path
             d="M 0,0 -11.139,-11.613 -22.352,0.072 h -8.184 l 15.306,-15.949 -3.486,-3.634 c -2.983,-3.11 -5.967,-6.22 -8.953,-9.327 -2.757,-2.869 -5.503,-5.633 -8.784,-7.919 -2.851,-1.986 -6.203,-3.035 -9.693,-3.035 -9.358,0 -16.973,7.61 -16.982,16.966 0.009,9.357 7.624,16.967 16.982,16.967 3.489,0 6.841,-1.05 9.692,-3.036 3.282,-2.286 6.028,-5.05 8.785,-7.918 l 1.626,-1.694 4.109,4.246 -1.477,1.539 c -2.97,3.09 -5.944,6.078 -9.667,8.673 -3.847,2.678 -8.366,4.095 -13.068,4.095 -12.61,0 -22.87,-10.25 -22.887,-22.857 v -0.015 -0.015 c 0.017,-12.606 10.277,-22.856 22.887,-22.856 4.703,0 9.222,1.416 13.068,4.095 3.723,2.594 6.697,5.582 9.667,8.673 2.987,3.109 5.972,6.219 8.956,9.33 L 4.262,-4.087 c 0.388,0.405 1.396,1.449 2.404,2.493 0.575,0.596 1.146,1.187 1.608,1.666 H 0.069 C 0.047,0.049 0.019,0.02 0,0"
             style="fill:#ffffff;fill-opacity:1;fill-rule:nonzero;stroke:none"
             id="path26" /></g><g
           id="g28"
           transform="translate(64.9021,52.1875)"><path
             d="M 0,0 11.139,11.613 22.351,-0.072 h 8.185 l -15.306,15.95 3.486,3.633 c 2.983,3.11 5.967,6.22 8.953,9.327 2.757,2.869 5.503,5.633 8.784,7.919 2.851,1.986 6.203,3.035 9.693,3.035 9.358,0 16.973,-7.61 16.982,-16.966 C 63.119,13.469 55.504,5.859 46.146,5.859 c -3.489,0 -6.841,1.05 -9.692,3.036 -3.282,2.286 -6.028,5.05 -8.785,7.918 l -1.626,1.694 -4.11,-4.246 1.478,-1.539 c 2.97,-3.09 5.944,-6.078 9.667,-8.673 3.847,-2.678 8.366,-4.095 13.068,-4.095 12.609,0 22.87,10.25 22.887,22.857 v 0.015 0.015 C 69.016,35.447 58.755,45.697 46.146,45.697 41.443,45.697 36.924,44.281 33.078,41.602 29.355,39.008 26.381,36.02 23.411,32.929 20.424,29.82 17.439,26.71 14.455,23.599 L -4.262,4.087 C -4.65,3.682 -5.658,2.638 -6.666,1.594 -7.241,0.998 -7.812,0.407 -8.274,-0.072 h 8.205 C -0.047,-0.049 -0.02,-0.02 0,0"
             style="fill:#ffffff;fill-opacity:1;fill-rule:nonzero;stroke:none"
             id="path30" /></g></g></g></g></svg>
