<svg viewBox="0 0 60 60" fill="none" xmlns="http://www.w3.org/2000/svg">
  <g clip-path="url(#clip0)">
  <path opacity="0.8" d="M79.2504 -5.01953H-1.89648V63.6868H79.2504V-5.01953Z" fill="#E96380"></path>
  <g opacity="0.8">
  <path opacity="0.8" d="M11.1362 56.2849H-7.44165V-14.1299H11.1362C30.581 -14.1299 46.3436 1.63275 46.3436 21.0775C46.342 40.5222 30.5794 56.2849 11.1362 56.2849Z" fill="#9C339C"></path>
  </g>
  <path opacity="0.8" d="M36.0692 65.1111C51.7823 65.1111 64.5203 52.3731 64.5203 36.66C64.5203 20.947 51.7823 8.20898 36.0692 8.20898C20.3561 8.20898 7.61816 20.947 7.61816 36.66C7.61816 52.3731 20.3561 65.1111 36.0692 65.1111Z" fill="url(#paint0_radial)"></path>
  <path opacity="0.5" d="M31.5329 9.4502L19.1729 68.2139L76.2439 49.5349L31.5329 9.4502Z" fill="url(#paint1_linear)"></path>
  <path d="M55.5788 29.9998C55.5788 44.1267 44.1267 55.5788 29.9998 55.5788C15.873 55.5788 4.4209 44.1267 4.4209 29.9998C4.4209 15.873 15.873 4.4209 29.9998 4.4209C44.1267 4.4209 55.5788 15.873 55.5788 29.9998Z" fill="black"></path>
  <path d="M28.2755 36.6318H25.2818V28.4087L22.4208 36.6318H20.1471L17.1913 28.4087V36.6318H14.1992V23.3687H17.7424L21.2855 32.596L24.7892 23.3687H28.2755V36.6318Z" fill="white"></path>
  <path d="M30.8159 23.3687H33.9233V36.6318H30.8159V23.3687Z" fill="white"></path>
  <path d="M44.2858 36.6318L43.7742 35.0213H39.0563L38.5447 36.6318H35.2668L40.0037 23.3687H42.8268L47.6205 36.6318H44.2858ZM41.4247 27.1581L39.7953 32.615H43.0163L41.4247 27.1581Z" fill="white"></path>
  </g>
  <defs>
  <radialGradient id="paint0_radial" cx="0" cy="0" r="1" gradientUnits="userSpaceOnUse" gradientTransform="translate(36.0692 36.66) scale(28.451)">
  <stop stop-color="#00B4CC" stop-opacity="0"></stop>
  <stop offset="0.519" stop-color="#00B4CC" stop-opacity="0.65"></stop>
  <stop offset="0.9996" stop-color="#00BED6" stop-opacity="0.95"></stop>
  </radialGradient>
  <linearGradient id="paint1_linear" x1="6.59559" y1="44.97" x2="63.6677" y2="26.2943" gradientUnits="userSpaceOnUse">
  <stop offset="0.0292" stop-color="white"></stop>
  <stop offset="0.4759" stop-color="#FFAFEB"></stop>
  <stop offset="1" stop-color="#00B4CC"></stop>
  </linearGradient>
  <clipPath id="clip0">
  <path d="M0 30C0 13.4315 13.4315 0 30 0C46.5685 0 60 13.4315 60 30C60 46.5685 46.5685 60 30 60C13.4315 60 0 46.5685 0 30Z" fill="white"></path>
  </clipPath>
  </defs>
</svg>